<svg width="118" height="52" viewBox="0 0 118 52" fill="none" xmlns="http://www.w3.org/2000/svg">
<path d="M17.912 39.336C14.744 39.336 11.832 38.6 9.176 37.128C6.552 35.656 4.456 33.608 2.888 30.984C1.352 28.328 0.584 25.352 0.584 22.056C0.584 18.76 1.352 15.8 2.888 13.176C4.456 10.552 6.552 8.504 9.176 7.032C11.832 5.56 14.744 4.824 17.912 4.824C21.08 4.824 23.976 5.56 26.6 7.032C29.256 8.504 31.336 10.552 32.84 13.176C34.376 15.8 35.144 18.76 35.144 22.056C35.144 25.352 34.376 28.328 32.84 30.984C31.304 33.608 29.224 35.656 26.6 37.128C23.976 38.6 21.08 39.336 17.912 39.336ZM17.912 31.848C20.6 31.848 22.744 30.952 24.344 29.16C25.976 27.368 26.792 25 26.792 22.056C26.792 19.08 25.976 16.712 24.344 14.952C22.744 13.16 20.6 12.264 17.912 12.264C15.192 12.264 13.016 13.144 11.384 14.904C9.784 16.664 8.984 19.048 8.984 22.056C8.984 25.032 9.784 27.416 11.384 29.208C13.016 30.968 15.192 31.848 17.912 31.848ZM47.9184 16.008C48.7184 14.76 49.8224 13.752 51.2304 12.984C52.6384 12.216 54.2864 11.832 56.1744 11.832C58.3824 11.832 60.3824 12.392 62.1744 13.512C63.9664 14.632 65.3744 16.232 66.3984 18.312C67.4544 20.392 67.9824 22.808 67.9824 25.56C67.9824 28.312 67.4544 30.744 66.3984 32.856C65.3744 34.936 63.9664 36.552 62.1744 37.704C60.3824 38.824 58.3824 39.384 56.1744 39.384C54.3184 39.384 52.6704 39 51.2304 38.232C49.8224 37.464 48.7184 36.472 47.9184 35.256V51.768H39.7104V12.216H47.9184V16.008ZM59.6304 25.56C59.6304 23.512 59.0544 21.912 57.9024 20.76C56.7824 19.576 55.3904 18.984 53.7264 18.984C52.0944 18.984 50.7024 19.576 49.5504 20.76C48.4304 21.944 47.8704 23.56 47.8704 25.608C47.8704 27.656 48.4304 29.272 49.5504 30.456C50.7024 31.64 52.0944 32.232 53.7264 32.232C55.3584 32.232 56.7504 31.64 57.9024 30.456C59.0544 29.24 59.6304 27.608 59.6304 25.56ZM76.4165 9.432C74.9765 9.432 73.7925 9.016 72.8645 8.184C71.9685 7.32 71.5205 6.264 71.5205 5.016C71.5205 3.736 71.9685 2.68 72.8645 1.848C73.7925 0.983997 74.9765 0.551997 76.4165 0.551997C77.8245 0.551997 78.9765 0.983997 79.8725 1.848C80.8005 2.68 81.2645 3.736 81.2645 5.016C81.2645 6.264 80.8005 7.32 79.8725 8.184C78.9765 9.016 77.8245 9.432 76.4165 9.432ZM80.4965 12.216V39H72.2885V12.216H80.4965ZM99.8848 19.032H95.4688V39H87.2608V19.032H84.2848V12.216H87.2608V11.448C87.2608 8.152 88.2048 5.656 90.0928 3.96C91.9808 2.232 94.7488 1.368 98.3968 1.368C99.0048 1.368 99.4528 1.384 99.7408 1.416V8.376C98.1728 8.28 97.0688 8.504 96.4288 9.048C95.7888 9.592 95.4688 10.568 95.4688 11.976V12.216H99.8848V19.032ZM117.182 19.032H112.766V39H104.558V19.032H101.582V12.216H104.558V11.448C104.558 8.152 105.502 5.656 107.39 3.96C109.278 2.232 112.046 1.368 115.694 1.368C116.302 1.368 116.75 1.384 117.038 1.416V8.376C115.47 8.28 114.366 8.504 113.726 9.048C113.086 9.592 112.766 10.568 112.766 11.976V12.216H117.182V19.032Z" fill="#102348"/>
</svg>
